G04 #@! TF.GenerationSoftware,KiCad,Pcbnew,(5.1.8)-1*
G04 #@! TF.CreationDate,2022-01-18T18:26:17+01:00*
G04 #@! TF.ProjectId,free_michelle_v1_0,66726565-5f6d-4696-9368-656c6c655f76,v1.0*
G04 #@! TF.SameCoordinates,Original*
G04 #@! TF.FileFunction,Soldermask,Bot*
G04 #@! TF.FilePolarity,Negative*
%FSLAX46Y46*%
G04 Gerber Fmt 4.6, Leading zero omitted, Abs format (unit mm)*
G04 Created by KiCad (PCBNEW (5.1.8)-1) date 2022-01-18 18:26:17*
%MOMM*%
%LPD*%
G01*
G04 APERTURE LIST*
%ADD10O,1.905000X2.000000*%
%ADD11R,1.905000X2.000000*%
%ADD12O,1.700000X1.700000*%
%ADD13R,1.700000X1.700000*%
%ADD14C,1.700000*%
%ADD15C,1.600000*%
%ADD16O,1.350000X1.350000*%
%ADD17R,1.350000X1.350000*%
%ADD18C,2.000000*%
%ADD19R,2.000000X2.000000*%
%ADD20R,1.600000X1.600000*%
%ADD21C,1.524000*%
%ADD22C,1.800000*%
%ADD23R,1.800000X1.800000*%
%ADD24O,2.200000X2.200000*%
%ADD25R,2.200000X2.200000*%
%ADD26O,1.980000X3.960000*%
%ADD27R,1.980000X3.960000*%
%ADD28O,3.960000X1.980000*%
%ADD29R,3.960000X1.980000*%
%ADD30R,3.500000X3.500000*%
%ADD31C,3.000000*%
%ADD32O,1.600000X1.600000*%
%ADD33R,3.000000X2.500000*%
%ADD34O,2.400000X1.600000*%
%ADD35R,2.400000X1.600000*%
%ADD36R,1.524000X1.524000*%
G04 APERTURE END LIST*
D10*
X62550000Y-84590000D03*
X65090000Y-84590000D03*
D11*
X67630000Y-84590000D03*
D10*
X62420000Y-62540000D03*
X64960000Y-62540000D03*
D11*
X67500000Y-62540000D03*
D12*
X179000000Y-69100000D03*
X176460000Y-69100000D03*
X173920000Y-69100000D03*
X171380000Y-69100000D03*
X168840000Y-69100000D03*
D13*
X166300000Y-69100000D03*
D14*
X50310000Y-147950000D03*
X52850000Y-147950000D03*
X55390000Y-147950000D03*
X57930000Y-147950000D03*
X61740000Y-103500000D03*
D13*
X46500000Y-103500000D03*
D14*
X61740000Y-106040000D03*
X46500000Y-106040000D03*
X61740000Y-108580000D03*
X46500000Y-108580000D03*
X61740000Y-111120000D03*
X46500000Y-111120000D03*
X61740000Y-113660000D03*
X46500000Y-113660000D03*
X61740000Y-116200000D03*
X46500000Y-116200000D03*
X61740000Y-118740000D03*
X46500000Y-118740000D03*
X61740000Y-121280000D03*
X46500000Y-121280000D03*
X61740000Y-123820000D03*
X46500000Y-123820000D03*
X61740000Y-126360000D03*
X46500000Y-126360000D03*
X61740000Y-128900000D03*
X46500000Y-128900000D03*
X61740000Y-131440000D03*
X46500000Y-131440000D03*
X61740000Y-133980000D03*
X46500000Y-133980000D03*
X61740000Y-136520000D03*
X46500000Y-136520000D03*
X61740000Y-139060000D03*
X46500000Y-139060000D03*
X61740000Y-141600000D03*
X46500000Y-141600000D03*
X61740000Y-144140000D03*
X46500000Y-144140000D03*
X61740000Y-146680000D03*
X46500000Y-146680000D03*
X61740000Y-149220000D03*
X46500000Y-149220000D03*
X61740000Y-151760000D03*
X46500000Y-151760000D03*
D15*
X38890000Y-78360000D03*
X38890000Y-75860000D03*
X38890000Y-88100000D03*
X38890000Y-85600000D03*
D16*
X199000000Y-69900000D03*
X199000000Y-67900000D03*
X199000000Y-65900000D03*
D17*
X199000000Y-63900000D03*
D16*
X199000000Y-83400000D03*
X199000000Y-81400000D03*
X199000000Y-79400000D03*
D17*
X199000000Y-77400000D03*
D18*
X142400000Y-86400000D03*
D19*
X142400000Y-94000000D03*
D15*
X81540000Y-146800000D03*
X84040000Y-146800000D03*
X55000000Y-64510000D03*
D20*
X55000000Y-62010000D03*
D15*
X58100000Y-67700000D03*
X63100000Y-67700000D03*
X55000000Y-75920000D03*
D20*
X55000000Y-73420000D03*
D15*
X71900000Y-67700000D03*
X66900000Y-67700000D03*
X58300000Y-79600000D03*
X63300000Y-79600000D03*
X55000000Y-86760000D03*
D20*
X55000000Y-84260000D03*
D15*
X58400000Y-90000000D03*
X63400000Y-90000000D03*
X71900000Y-79600000D03*
X66900000Y-79600000D03*
X71700000Y-90000000D03*
X66700000Y-90000000D03*
D21*
X117200000Y-88900000D03*
X97200000Y-88910000D03*
X83800000Y-97580000D03*
X83800000Y-95040000D03*
X83800000Y-92500000D03*
X83800000Y-89960000D03*
X83800000Y-87420000D03*
X83800000Y-84880000D03*
X83800000Y-82340000D03*
X83800000Y-79800000D03*
X83800000Y-77260000D03*
X83800000Y-74720000D03*
X83800000Y-72180000D03*
X83800000Y-69640000D03*
X83800000Y-67100000D03*
X83800000Y-64560000D03*
D22*
X167940000Y-91600000D03*
D23*
X165400000Y-91600000D03*
D24*
X129740000Y-52400000D03*
D25*
X139900000Y-52400000D03*
D24*
X27740000Y-52200000D03*
D25*
X37900000Y-52200000D03*
D24*
X151340000Y-52400000D03*
D25*
X161500000Y-52400000D03*
D24*
X49340000Y-52200000D03*
D25*
X59500000Y-52200000D03*
D24*
X173340000Y-52600000D03*
D25*
X183500000Y-52600000D03*
D24*
X71340000Y-52200000D03*
D25*
X81500000Y-52200000D03*
D24*
X195340000Y-52600000D03*
D25*
X205500000Y-52600000D03*
D24*
X93940000Y-52200000D03*
D25*
X104100000Y-52200000D03*
D22*
X43160000Y-76800000D03*
D23*
X45700000Y-76800000D03*
D22*
X43160000Y-86500000D03*
D23*
X45700000Y-86500000D03*
D14*
X178610000Y-147750000D03*
X181150000Y-147750000D03*
X183690000Y-147750000D03*
X186230000Y-147750000D03*
X190040000Y-103300000D03*
D13*
X174800000Y-103300000D03*
D14*
X190040000Y-105840000D03*
X174800000Y-105840000D03*
X190040000Y-108380000D03*
X174800000Y-108380000D03*
X190040000Y-110920000D03*
X174800000Y-110920000D03*
X190040000Y-113460000D03*
X174800000Y-113460000D03*
X190040000Y-116000000D03*
X174800000Y-116000000D03*
X190040000Y-118540000D03*
X174800000Y-118540000D03*
X190040000Y-121080000D03*
X174800000Y-121080000D03*
X190040000Y-123620000D03*
X174800000Y-123620000D03*
X190040000Y-126160000D03*
X174800000Y-126160000D03*
X190040000Y-128700000D03*
X174800000Y-128700000D03*
X190040000Y-131240000D03*
X174800000Y-131240000D03*
X190040000Y-133780000D03*
X174800000Y-133780000D03*
X190040000Y-136320000D03*
X174800000Y-136320000D03*
X190040000Y-138860000D03*
X174800000Y-138860000D03*
X190040000Y-141400000D03*
X174800000Y-141400000D03*
X190040000Y-143940000D03*
X174800000Y-143940000D03*
X190040000Y-146480000D03*
X174800000Y-146480000D03*
X190040000Y-149020000D03*
X174800000Y-149020000D03*
X190040000Y-151560000D03*
X174800000Y-151560000D03*
D12*
X159340000Y-150800000D03*
D13*
X156800000Y-150800000D03*
D12*
X156790000Y-147110000D03*
D13*
X159330000Y-147110000D03*
D16*
X51000000Y-156800000D03*
X53000000Y-156800000D03*
X55000000Y-156800000D03*
D17*
X57000000Y-156800000D03*
D26*
X139500000Y-22200000D03*
X134500000Y-22200000D03*
D27*
X129500000Y-22200000D03*
D26*
X37960000Y-22200000D03*
X32960000Y-22200000D03*
D27*
X27960000Y-22200000D03*
D26*
X161500000Y-22200000D03*
X156500000Y-22200000D03*
D27*
X151500000Y-22200000D03*
D26*
X59806666Y-22200000D03*
X54806666Y-22200000D03*
D27*
X49806666Y-22200000D03*
D16*
X179300000Y-156800000D03*
X181300000Y-156800000D03*
X183300000Y-156800000D03*
D17*
X185300000Y-156800000D03*
D16*
X199000000Y-96900000D03*
X199000000Y-94900000D03*
X199000000Y-92900000D03*
D17*
X199000000Y-90900000D03*
D26*
X183500000Y-22200000D03*
X178500000Y-22200000D03*
D27*
X173500000Y-22200000D03*
D26*
X81653332Y-22200000D03*
X76653332Y-22200000D03*
D27*
X71653332Y-22200000D03*
D12*
X176100000Y-92840000D03*
D13*
X176100000Y-90300000D03*
D26*
X205500000Y-22200000D03*
X200500000Y-22200000D03*
D27*
X195500000Y-22200000D03*
D26*
X103500000Y-22200000D03*
X98500000Y-22200000D03*
D27*
X93500000Y-22200000D03*
D28*
X31600000Y-97700000D03*
D29*
X31600000Y-102700000D03*
G36*
G01*
X34380000Y-70075000D02*
X34380000Y-68325000D01*
G75*
G02*
X35255000Y-67450000I875000J0D01*
G01*
X37005000Y-67450000D01*
G75*
G02*
X37880000Y-68325000I0J-875000D01*
G01*
X37880000Y-70075000D01*
G75*
G02*
X37005000Y-70950000I-875000J0D01*
G01*
X35255000Y-70950000D01*
G75*
G02*
X34380000Y-70075000I0J875000D01*
G01*
G37*
G36*
G01*
X31630000Y-65500000D02*
X31630000Y-63500000D01*
G75*
G02*
X32380000Y-62750000I750000J0D01*
G01*
X33880000Y-62750000D01*
G75*
G02*
X34630000Y-63500000I0J-750000D01*
G01*
X34630000Y-65500000D01*
G75*
G02*
X33880000Y-66250000I-750000J0D01*
G01*
X32380000Y-66250000D01*
G75*
G02*
X31630000Y-65500000I0J750000D01*
G01*
G37*
D30*
X39130000Y-64500000D03*
D31*
X134500000Y-47800000D03*
X128500000Y-45800000D03*
X128500000Y-33600000D03*
X140500000Y-33600000D03*
X140500000Y-45800000D03*
X32980000Y-47600000D03*
X26980000Y-45600000D03*
X26980000Y-33400000D03*
X38980000Y-33400000D03*
X38980000Y-45600000D03*
X156500000Y-47800000D03*
X150500000Y-45800000D03*
X150500000Y-33600000D03*
X162500000Y-33600000D03*
X162500000Y-45800000D03*
X60820000Y-45800000D03*
X60820000Y-33600000D03*
X48820000Y-33600000D03*
X48820000Y-45800000D03*
X54820000Y-47800000D03*
X178500000Y-47800000D03*
X172500000Y-45800000D03*
X172500000Y-33600000D03*
X184500000Y-33600000D03*
X184500000Y-45800000D03*
X82660000Y-45800000D03*
X82660000Y-33600000D03*
X70660000Y-33600000D03*
X70660000Y-45800000D03*
X76660000Y-47800000D03*
X200500000Y-47800000D03*
X194500000Y-45800000D03*
X194500000Y-33600000D03*
X206500000Y-33600000D03*
X206500000Y-45800000D03*
X98500000Y-47800000D03*
X92500000Y-45800000D03*
X92500000Y-33600000D03*
X104500000Y-33600000D03*
X104500000Y-45800000D03*
D32*
X156820000Y-94020000D03*
D15*
X156820000Y-86400000D03*
D32*
X49500000Y-80520000D03*
D15*
X49500000Y-72900000D03*
D32*
X49500000Y-90820000D03*
D15*
X49500000Y-83200000D03*
D19*
X165600000Y-76700000D03*
D18*
X165600000Y-79200000D03*
X165600000Y-81700000D03*
D33*
X173100000Y-73600000D03*
X173100000Y-84800000D03*
D21*
X35300000Y-79900000D03*
X35300000Y-73900000D03*
X32800000Y-79900000D03*
X32800000Y-73900000D03*
X30200000Y-79900000D03*
X30200000Y-73900000D03*
X35300000Y-89700000D03*
X35300000Y-83700000D03*
X32800000Y-89700000D03*
X32800000Y-83700000D03*
X30200000Y-89700000D03*
X30200000Y-83700000D03*
D34*
X98120000Y-128900000D03*
X90500000Y-136520000D03*
X98120000Y-131440000D03*
X90500000Y-133980000D03*
X98120000Y-133980000D03*
X90500000Y-131440000D03*
X98120000Y-136520000D03*
D35*
X90500000Y-128900000D03*
D21*
X149280000Y-158205000D03*
X149280000Y-155665000D03*
X149280000Y-153125000D03*
X149280000Y-150585000D03*
X149280000Y-148045000D03*
X149280000Y-145505000D03*
X149280000Y-142965000D03*
X149280000Y-140425000D03*
X149280000Y-137885000D03*
X149280000Y-135345000D03*
X149280000Y-132805000D03*
X149280000Y-130265000D03*
X149280000Y-127725000D03*
X149280000Y-125185000D03*
X149280000Y-122645000D03*
X126620000Y-158205000D03*
X126620000Y-155665000D03*
X126620000Y-153125000D03*
X126620000Y-150585000D03*
X126620000Y-148045000D03*
X126620000Y-145505000D03*
X126620000Y-142965000D03*
X126620000Y-140425000D03*
X126620000Y-137885000D03*
X126620000Y-135345000D03*
X126620000Y-132805000D03*
X126620000Y-130265000D03*
X126620000Y-127725000D03*
X126620000Y-125185000D03*
X126620000Y-122645000D03*
X83940000Y-158620000D03*
X81400000Y-158620000D03*
X83940000Y-156080000D03*
X81400000Y-156080000D03*
X83940000Y-153540000D03*
X81400000Y-153540000D03*
X83940000Y-151000000D03*
D36*
X81400000Y-151000000D03*
D10*
X67680000Y-76500000D03*
X65140000Y-76500000D03*
D11*
X62600000Y-76500000D03*
M02*
