G04 #@! TF.GenerationSoftware,KiCad,Pcbnew,(5.1.8)-1*
G04 #@! TF.CreationDate,2022-01-18T20:15:18+01:00*
G04 #@! TF.ProjectId,free_michelle_v1_0,66726565-5f6d-4696-9368-656c6c655f76,v1.0*
G04 #@! TF.SameCoordinates,Original*
G04 #@! TF.FileFunction,Legend,Bot*
G04 #@! TF.FilePolarity,Positive*
%FSLAX46Y46*%
G04 Gerber Fmt 4.6, Leading zero omitted, Abs format (unit mm)*
G04 Created by KiCad (PCBNEW (5.1.8)-1) date 2022-01-18 20:15:18*
%MOMM*%
%LPD*%
G01*
G04 APERTURE LIST*
%ADD10C,0.300000*%
%ADD11C,0.700000*%
%ADD12C,3.200000*%
%ADD13O,1.905000X2.000000*%
%ADD14R,1.905000X2.000000*%
%ADD15O,1.700000X1.700000*%
%ADD16R,1.700000X1.700000*%
%ADD17C,1.700000*%
%ADD18C,1.600000*%
%ADD19O,1.350000X1.350000*%
%ADD20R,1.350000X1.350000*%
%ADD21C,2.000000*%
%ADD22R,2.000000X2.000000*%
%ADD23R,1.600000X1.600000*%
%ADD24C,1.524000*%
%ADD25C,1.800000*%
%ADD26R,1.800000X1.800000*%
%ADD27O,2.200000X2.200000*%
%ADD28R,2.200000X2.200000*%
%ADD29O,1.980000X3.960000*%
%ADD30R,1.980000X3.960000*%
%ADD31O,3.960000X1.980000*%
%ADD32R,3.960000X1.980000*%
%ADD33R,3.500000X3.500000*%
%ADD34C,3.000000*%
%ADD35O,1.600000X1.600000*%
%ADD36R,3.000000X2.500000*%
%ADD37O,2.400000X1.600000*%
%ADD38R,2.400000X1.600000*%
%ADD39R,1.524000X1.524000*%
G04 APERTURE END LIST*
D10*
X203478571Y-108328571D02*
X203478571Y-108900000D01*
X204478571Y-108542857D02*
X203192857Y-108542857D01*
X203050000Y-108614285D01*
X202978571Y-108757142D01*
X202978571Y-108900000D01*
X204478571Y-109400000D02*
X203478571Y-109400000D01*
X203764285Y-109400000D02*
X203621428Y-109471428D01*
X203550000Y-109542857D01*
X203478571Y-109685714D01*
X203478571Y-109828571D01*
X204407142Y-110900000D02*
X204478571Y-110757142D01*
X204478571Y-110471428D01*
X204407142Y-110328571D01*
X204264285Y-110257142D01*
X203692857Y-110257142D01*
X203550000Y-110328571D01*
X203478571Y-110471428D01*
X203478571Y-110757142D01*
X203550000Y-110900000D01*
X203692857Y-110971428D01*
X203835714Y-110971428D01*
X203978571Y-110257142D01*
X204407142Y-112185714D02*
X204478571Y-112042857D01*
X204478571Y-111757142D01*
X204407142Y-111614285D01*
X204264285Y-111542857D01*
X203692857Y-111542857D01*
X203550000Y-111614285D01*
X203478571Y-111757142D01*
X203478571Y-112042857D01*
X203550000Y-112185714D01*
X203692857Y-112257142D01*
X203835714Y-112257142D01*
X203978571Y-111542857D01*
X204621428Y-112542857D02*
X204621428Y-113685714D01*
X204478571Y-114042857D02*
X203478571Y-114042857D01*
X203621428Y-114042857D02*
X203550000Y-114114285D01*
X203478571Y-114257142D01*
X203478571Y-114471428D01*
X203550000Y-114614285D01*
X203692857Y-114685714D01*
X204478571Y-114685714D01*
X203692857Y-114685714D02*
X203550000Y-114757142D01*
X203478571Y-114900000D01*
X203478571Y-115114285D01*
X203550000Y-115257142D01*
X203692857Y-115328571D01*
X204478571Y-115328571D01*
X204478571Y-116042857D02*
X203478571Y-116042857D01*
X202978571Y-116042857D02*
X203050000Y-115971428D01*
X203121428Y-116042857D01*
X203050000Y-116114285D01*
X202978571Y-116042857D01*
X203121428Y-116042857D01*
X204407142Y-117400000D02*
X204478571Y-117257142D01*
X204478571Y-116971428D01*
X204407142Y-116828571D01*
X204335714Y-116757142D01*
X204192857Y-116685714D01*
X203764285Y-116685714D01*
X203621428Y-116757142D01*
X203550000Y-116828571D01*
X203478571Y-116971428D01*
X203478571Y-117257142D01*
X203550000Y-117400000D01*
X204478571Y-118042857D02*
X202978571Y-118042857D01*
X204478571Y-118685714D02*
X203692857Y-118685714D01*
X203550000Y-118614285D01*
X203478571Y-118471428D01*
X203478571Y-118257142D01*
X203550000Y-118114285D01*
X203621428Y-118042857D01*
X204407142Y-119971428D02*
X204478571Y-119828571D01*
X204478571Y-119542857D01*
X204407142Y-119400000D01*
X204264285Y-119328571D01*
X203692857Y-119328571D01*
X203550000Y-119400000D01*
X203478571Y-119542857D01*
X203478571Y-119828571D01*
X203550000Y-119971428D01*
X203692857Y-120042857D01*
X203835714Y-120042857D01*
X203978571Y-119328571D01*
X204478571Y-120900000D02*
X204407142Y-120757142D01*
X204264285Y-120685714D01*
X202978571Y-120685714D01*
X204478571Y-121685714D02*
X204407142Y-121542857D01*
X204264285Y-121471428D01*
X202978571Y-121471428D01*
X204407142Y-122828571D02*
X204478571Y-122685714D01*
X204478571Y-122400000D01*
X204407142Y-122257142D01*
X204264285Y-122185714D01*
X203692857Y-122185714D01*
X203550000Y-122257142D01*
X203478571Y-122400000D01*
X203478571Y-122685714D01*
X203550000Y-122828571D01*
X203692857Y-122900000D01*
X203835714Y-122900000D01*
X203978571Y-122185714D01*
X204621428Y-123185714D02*
X204621428Y-124328571D01*
X203478571Y-124542857D02*
X204478571Y-124900000D01*
X203478571Y-125257142D01*
X204478571Y-126614285D02*
X204478571Y-125757142D01*
X204478571Y-126185714D02*
X202978571Y-126185714D01*
X203192857Y-126042857D01*
X203335714Y-125900000D01*
X203407142Y-125757142D01*
X204335714Y-127257142D02*
X204407142Y-127328571D01*
X204478571Y-127257142D01*
X204407142Y-127185714D01*
X204335714Y-127257142D01*
X204478571Y-127257142D01*
X202978571Y-128257142D02*
X202978571Y-128400000D01*
X203050000Y-128542857D01*
X203121428Y-128614285D01*
X203264285Y-128685714D01*
X203550000Y-128757142D01*
X203907142Y-128757142D01*
X204192857Y-128685714D01*
X204335714Y-128614285D01*
X204407142Y-128542857D01*
X204478571Y-128400000D01*
X204478571Y-128257142D01*
X204407142Y-128114285D01*
X204335714Y-128042857D01*
X204192857Y-127971428D01*
X203907142Y-127900000D01*
X203550000Y-127900000D01*
X203264285Y-127971428D01*
X203121428Y-128042857D01*
X203050000Y-128114285D01*
X202978571Y-128257142D01*
X203907142Y-130542857D02*
X203907142Y-131685714D01*
X204050000Y-133471428D02*
X204050000Y-134185714D01*
X204478571Y-133328571D02*
X202978571Y-133828571D01*
X204478571Y-134328571D01*
X203478571Y-135471428D02*
X204978571Y-135471428D01*
X204407142Y-135471428D02*
X204478571Y-135328571D01*
X204478571Y-135042857D01*
X204407142Y-134900000D01*
X204335714Y-134828571D01*
X204192857Y-134757142D01*
X203764285Y-134757142D01*
X203621428Y-134828571D01*
X203550000Y-134900000D01*
X203478571Y-135042857D01*
X203478571Y-135328571D01*
X203550000Y-135471428D01*
X203478571Y-136828571D02*
X204478571Y-136828571D01*
X203478571Y-136185714D02*
X204264285Y-136185714D01*
X204407142Y-136257142D01*
X204478571Y-136400000D01*
X204478571Y-136614285D01*
X204407142Y-136757142D01*
X204335714Y-136828571D01*
X204478571Y-138185714D02*
X203692857Y-138185714D01*
X203550000Y-138114285D01*
X203478571Y-137971428D01*
X203478571Y-137685714D01*
X203550000Y-137542857D01*
X204407142Y-138185714D02*
X204478571Y-138042857D01*
X204478571Y-137685714D01*
X204407142Y-137542857D01*
X204264285Y-137471428D01*
X204121428Y-137471428D01*
X203978571Y-137542857D01*
X203907142Y-137685714D01*
X203907142Y-138042857D01*
X203835714Y-138185714D01*
X204478571Y-138900000D02*
X203478571Y-138900000D01*
X203764285Y-138900000D02*
X203621428Y-138971428D01*
X203550000Y-139042857D01*
X203478571Y-139185714D01*
X203478571Y-139328571D01*
X204478571Y-139828571D02*
X203478571Y-139828571D01*
X202978571Y-139828571D02*
X203050000Y-139757142D01*
X203121428Y-139828571D01*
X203050000Y-139900000D01*
X202978571Y-139828571D01*
X203121428Y-139828571D01*
X203478571Y-141185714D02*
X204478571Y-141185714D01*
X203478571Y-140542857D02*
X204264285Y-140542857D01*
X204407142Y-140614285D01*
X204478571Y-140757142D01*
X204478571Y-140971428D01*
X204407142Y-141114285D01*
X204335714Y-141185714D01*
X204478571Y-141900000D02*
X203478571Y-141900000D01*
X203621428Y-141900000D02*
X203550000Y-141971428D01*
X203478571Y-142114285D01*
X203478571Y-142328571D01*
X203550000Y-142471428D01*
X203692857Y-142542857D01*
X204478571Y-142542857D01*
X203692857Y-142542857D02*
X203550000Y-142614285D01*
X203478571Y-142757142D01*
X203478571Y-142971428D01*
X203550000Y-143114285D01*
X203692857Y-143185714D01*
X204478571Y-143185714D01*
X204407142Y-145685714D02*
X204478571Y-145542857D01*
X204478571Y-145257142D01*
X204407142Y-145114285D01*
X204335714Y-145042857D01*
X204192857Y-144971428D01*
X203764285Y-144971428D01*
X203621428Y-145042857D01*
X203550000Y-145114285D01*
X203478571Y-145257142D01*
X203478571Y-145542857D01*
X203550000Y-145685714D01*
X204478571Y-146542857D02*
X204407142Y-146400000D01*
X204335714Y-146328571D01*
X204192857Y-146257142D01*
X203764285Y-146257142D01*
X203621428Y-146328571D01*
X203550000Y-146400000D01*
X203478571Y-146542857D01*
X203478571Y-146757142D01*
X203550000Y-146900000D01*
X203621428Y-146971428D01*
X203764285Y-147042857D01*
X204192857Y-147042857D01*
X204335714Y-146971428D01*
X204407142Y-146900000D01*
X204478571Y-146757142D01*
X204478571Y-146542857D01*
X203478571Y-147685714D02*
X204478571Y-147685714D01*
X203621428Y-147685714D02*
X203550000Y-147757142D01*
X203478571Y-147900000D01*
X203478571Y-148114285D01*
X203550000Y-148257142D01*
X203692857Y-148328571D01*
X204478571Y-148328571D01*
X203478571Y-148828571D02*
X203478571Y-149400000D01*
X202978571Y-149042857D02*
X204264285Y-149042857D01*
X204407142Y-149114285D01*
X204478571Y-149257142D01*
X204478571Y-149400000D01*
X204478571Y-149900000D02*
X203478571Y-149900000D01*
X203764285Y-149900000D02*
X203621428Y-149971428D01*
X203550000Y-150042857D01*
X203478571Y-150185714D01*
X203478571Y-150328571D01*
X204478571Y-151042857D02*
X204407142Y-150900000D01*
X204335714Y-150828571D01*
X204192857Y-150757142D01*
X203764285Y-150757142D01*
X203621428Y-150828571D01*
X203550000Y-150900000D01*
X203478571Y-151042857D01*
X203478571Y-151257142D01*
X203550000Y-151400000D01*
X203621428Y-151471428D01*
X203764285Y-151542857D01*
X204192857Y-151542857D01*
X204335714Y-151471428D01*
X204407142Y-151400000D01*
X204478571Y-151257142D01*
X204478571Y-151042857D01*
X204478571Y-152400000D02*
X204407142Y-152257142D01*
X204264285Y-152185714D01*
X202978571Y-152185714D01*
X204478571Y-153185714D02*
X204407142Y-153042857D01*
X204264285Y-152971428D01*
X202978571Y-152971428D01*
X204407142Y-154328571D02*
X204478571Y-154185714D01*
X204478571Y-153900000D01*
X204407142Y-153757142D01*
X204264285Y-153685714D01*
X203692857Y-153685714D01*
X203550000Y-153757142D01*
X203478571Y-153900000D01*
X203478571Y-154185714D01*
X203550000Y-154328571D01*
X203692857Y-154400000D01*
X203835714Y-154400000D01*
X203978571Y-153685714D01*
X204478571Y-155042857D02*
X203478571Y-155042857D01*
X203764285Y-155042857D02*
X203621428Y-155114285D01*
X203550000Y-155185714D01*
X203478571Y-155328571D01*
X203478571Y-155471428D01*
X205678571Y-146900000D02*
X205678571Y-147042857D01*
X205750000Y-147185714D01*
X205821428Y-147257142D01*
X205964285Y-147328571D01*
X206250000Y-147400000D01*
X206607142Y-147400000D01*
X206892857Y-147328571D01*
X207035714Y-147257142D01*
X207107142Y-147185714D01*
X207178571Y-147042857D01*
X207178571Y-146900000D01*
X207107142Y-146757142D01*
X207035714Y-146685714D01*
X206892857Y-146614285D01*
X206607142Y-146542857D01*
X206250000Y-146542857D01*
X205964285Y-146614285D01*
X205821428Y-146685714D01*
X205750000Y-146757142D01*
X205678571Y-146900000D01*
X207178571Y-148828571D02*
X207178571Y-147971428D01*
X207178571Y-148400000D02*
X205678571Y-148400000D01*
X205892857Y-148257142D01*
X206035714Y-148114285D01*
X206107142Y-147971428D01*
X207035714Y-149471428D02*
X207107142Y-149542857D01*
X207178571Y-149471428D01*
X207107142Y-149400000D01*
X207035714Y-149471428D01*
X207178571Y-149471428D01*
X205821428Y-150114285D02*
X205750000Y-150185714D01*
X205678571Y-150328571D01*
X205678571Y-150685714D01*
X205750000Y-150828571D01*
X205821428Y-150900000D01*
X205964285Y-150971428D01*
X206107142Y-150971428D01*
X206321428Y-150900000D01*
X207178571Y-150042857D01*
X207178571Y-150971428D01*
X205678571Y-151900000D02*
X205678571Y-152042857D01*
X205750000Y-152185714D01*
X205821428Y-152257142D01*
X205964285Y-152328571D01*
X206250000Y-152400000D01*
X206607142Y-152400000D01*
X206892857Y-152328571D01*
X207035714Y-152257142D01*
X207107142Y-152185714D01*
X207178571Y-152042857D01*
X207178571Y-151900000D01*
X207107142Y-151757142D01*
X207035714Y-151685714D01*
X206892857Y-151614285D01*
X206607142Y-151542857D01*
X206250000Y-151542857D01*
X205964285Y-151614285D01*
X205821428Y-151685714D01*
X205750000Y-151757142D01*
X205678571Y-151900000D01*
X205821428Y-152971428D02*
X205750000Y-153042857D01*
X205678571Y-153185714D01*
X205678571Y-153542857D01*
X205750000Y-153685714D01*
X205821428Y-153757142D01*
X205964285Y-153828571D01*
X206107142Y-153828571D01*
X206321428Y-153757142D01*
X207178571Y-152900000D01*
X207178571Y-153828571D01*
X205821428Y-154400000D02*
X205750000Y-154471428D01*
X205678571Y-154614285D01*
X205678571Y-154971428D01*
X205750000Y-155114285D01*
X205821428Y-155185714D01*
X205964285Y-155257142D01*
X206107142Y-155257142D01*
X206321428Y-155185714D01*
X207178571Y-154328571D01*
X207178571Y-155257142D01*
D11*
X198857142Y-137371428D02*
X201285714Y-137371428D01*
X201571428Y-137228571D01*
X201714285Y-137085714D01*
X201857142Y-136800000D01*
X201857142Y-136371428D01*
X201714285Y-136085714D01*
X200714285Y-137371428D02*
X200857142Y-137085714D01*
X200857142Y-136514285D01*
X200714285Y-136228571D01*
X200571428Y-136085714D01*
X200285714Y-135942857D01*
X199428571Y-135942857D01*
X199142857Y-136085714D01*
X199000000Y-136228571D01*
X198857142Y-136514285D01*
X198857142Y-137085714D01*
X199000000Y-137371428D01*
X200857142Y-138800000D02*
X198857142Y-138800000D01*
X199428571Y-138800000D02*
X199142857Y-138942857D01*
X199000000Y-139085714D01*
X198857142Y-139371428D01*
X198857142Y-139657142D01*
X200857142Y-141942857D02*
X199285714Y-141942857D01*
X199000000Y-141800000D01*
X198857142Y-141514285D01*
X198857142Y-140942857D01*
X199000000Y-140657142D01*
X200714285Y-141942857D02*
X200857142Y-141657142D01*
X200857142Y-140942857D01*
X200714285Y-140657142D01*
X200428571Y-140514285D01*
X200142857Y-140514285D01*
X199857142Y-140657142D01*
X199714285Y-140942857D01*
X199714285Y-141657142D01*
X199571428Y-141942857D01*
X200857142Y-144657142D02*
X197857142Y-144657142D01*
X200714285Y-144657142D02*
X200857142Y-144371428D01*
X200857142Y-143800000D01*
X200714285Y-143514285D01*
X200571428Y-143371428D01*
X200285714Y-143228571D01*
X199428571Y-143228571D01*
X199142857Y-143371428D01*
X199000000Y-143514285D01*
X198857142Y-143800000D01*
X198857142Y-144371428D01*
X199000000Y-144657142D01*
X200857142Y-146514285D02*
X200714285Y-146228571D01*
X200571428Y-146085714D01*
X200285714Y-145942857D01*
X199428571Y-145942857D01*
X199142857Y-146085714D01*
X199000000Y-146228571D01*
X198857142Y-146514285D01*
X198857142Y-146942857D01*
X199000000Y-147228571D01*
X199142857Y-147371428D01*
X199428571Y-147514285D01*
X200285714Y-147514285D01*
X200571428Y-147371428D01*
X200714285Y-147228571D01*
X200857142Y-146942857D01*
X200857142Y-146514285D01*
X200714285Y-148657142D02*
X200857142Y-148942857D01*
X200857142Y-149514285D01*
X200714285Y-149800000D01*
X200428571Y-149942857D01*
X200285714Y-149942857D01*
X200000000Y-149800000D01*
X199857142Y-149514285D01*
X199857142Y-149085714D01*
X199714285Y-148800000D01*
X199428571Y-148657142D01*
X199285714Y-148657142D01*
X199000000Y-148800000D01*
X198857142Y-149085714D01*
X198857142Y-149514285D01*
X199000000Y-149800000D01*
X197857142Y-150942857D02*
X197857142Y-152942857D01*
X200857142Y-151657142D01*
X197857142Y-153800000D02*
X197857142Y-155657142D01*
X199000000Y-154657142D01*
X199000000Y-155085714D01*
X199142857Y-155371428D01*
X199285714Y-155514285D01*
X199571428Y-155657142D01*
X200285714Y-155657142D01*
X200571428Y-155514285D01*
X200714285Y-155371428D01*
X200857142Y-155085714D01*
X200857142Y-154228571D01*
X200714285Y-153942857D01*
X200571428Y-153800000D01*
D10*
X29650000Y-164992857D02*
X29435714Y-165064285D01*
X29364285Y-165135714D01*
X29292857Y-165278571D01*
X29292857Y-165492857D01*
X29364285Y-165635714D01*
X29435714Y-165707142D01*
X29578571Y-165778571D01*
X30150000Y-165778571D01*
X30150000Y-164278571D01*
X29650000Y-164278571D01*
X29507142Y-164350000D01*
X29435714Y-164421428D01*
X29364285Y-164564285D01*
X29364285Y-164707142D01*
X29435714Y-164850000D01*
X29507142Y-164921428D01*
X29650000Y-164992857D01*
X30150000Y-164992857D01*
X28364285Y-164278571D02*
X28078571Y-164278571D01*
X27935714Y-164350000D01*
X27792857Y-164492857D01*
X27721428Y-164778571D01*
X27721428Y-165278571D01*
X27792857Y-165564285D01*
X27935714Y-165707142D01*
X28078571Y-165778571D01*
X28364285Y-165778571D01*
X28507142Y-165707142D01*
X28650000Y-165564285D01*
X28721428Y-165278571D01*
X28721428Y-164778571D01*
X28650000Y-164492857D01*
X28507142Y-164350000D01*
X28364285Y-164278571D01*
X27292857Y-164278571D02*
X26435714Y-164278571D01*
X26864285Y-165778571D02*
X26864285Y-164278571D01*
%LPC*%
D12*
X189420000Y-52760000D03*
X43660000Y-52760000D03*
X34540000Y-163020000D03*
X201060000Y-163020000D03*
D13*
X62550000Y-84590000D03*
X65090000Y-84590000D03*
D14*
X67630000Y-84590000D03*
D13*
X62420000Y-62540000D03*
X64960000Y-62540000D03*
D14*
X67500000Y-62540000D03*
D15*
X179000000Y-69100000D03*
X176460000Y-69100000D03*
X173920000Y-69100000D03*
X171380000Y-69100000D03*
X168840000Y-69100000D03*
D16*
X166300000Y-69100000D03*
D17*
X50310000Y-147950000D03*
X52850000Y-147950000D03*
X55390000Y-147950000D03*
X57930000Y-147950000D03*
X61740000Y-103500000D03*
D16*
X46500000Y-103500000D03*
D17*
X61740000Y-106040000D03*
X46500000Y-106040000D03*
X61740000Y-108580000D03*
X46500000Y-108580000D03*
X61740000Y-111120000D03*
X46500000Y-111120000D03*
X61740000Y-113660000D03*
X46500000Y-113660000D03*
X61740000Y-116200000D03*
X46500000Y-116200000D03*
X61740000Y-118740000D03*
X46500000Y-118740000D03*
X61740000Y-121280000D03*
X46500000Y-121280000D03*
X61740000Y-123820000D03*
X46500000Y-123820000D03*
X61740000Y-126360000D03*
X46500000Y-126360000D03*
X61740000Y-128900000D03*
X46500000Y-128900000D03*
X61740000Y-131440000D03*
X46500000Y-131440000D03*
X61740000Y-133980000D03*
X46500000Y-133980000D03*
X61740000Y-136520000D03*
X46500000Y-136520000D03*
X61740000Y-139060000D03*
X46500000Y-139060000D03*
X61740000Y-141600000D03*
X46500000Y-141600000D03*
X61740000Y-144140000D03*
X46500000Y-144140000D03*
X61740000Y-146680000D03*
X46500000Y-146680000D03*
X61740000Y-149220000D03*
X46500000Y-149220000D03*
X61740000Y-151760000D03*
X46500000Y-151760000D03*
D18*
X38890000Y-78360000D03*
X38890000Y-75860000D03*
X38890000Y-88100000D03*
X38890000Y-85600000D03*
D19*
X199000000Y-69900000D03*
X199000000Y-67900000D03*
X199000000Y-65900000D03*
D20*
X199000000Y-63900000D03*
D19*
X199000000Y-83400000D03*
X199000000Y-81400000D03*
X199000000Y-79400000D03*
D20*
X199000000Y-77400000D03*
D21*
X142400000Y-86400000D03*
D22*
X142400000Y-94000000D03*
D18*
X81540000Y-146800000D03*
X84040000Y-146800000D03*
X55000000Y-64510000D03*
D23*
X55000000Y-62010000D03*
D18*
X58100000Y-67700000D03*
X63100000Y-67700000D03*
X55000000Y-75920000D03*
D23*
X55000000Y-73420000D03*
D18*
X71900000Y-67700000D03*
X66900000Y-67700000D03*
X58300000Y-79600000D03*
X63300000Y-79600000D03*
X55000000Y-86760000D03*
D23*
X55000000Y-84260000D03*
D18*
X58400000Y-90000000D03*
X63400000Y-90000000D03*
X71900000Y-79600000D03*
X66900000Y-79600000D03*
X71700000Y-90000000D03*
X66700000Y-90000000D03*
D24*
X117200000Y-88900000D03*
X97200000Y-88910000D03*
X83800000Y-97580000D03*
X83800000Y-95040000D03*
X83800000Y-92500000D03*
X83800000Y-89960000D03*
X83800000Y-87420000D03*
X83800000Y-84880000D03*
X83800000Y-82340000D03*
X83800000Y-79800000D03*
X83800000Y-77260000D03*
X83800000Y-74720000D03*
X83800000Y-72180000D03*
X83800000Y-69640000D03*
X83800000Y-67100000D03*
X83800000Y-64560000D03*
D25*
X167940000Y-91600000D03*
D26*
X165400000Y-91600000D03*
D27*
X129740000Y-52400000D03*
D28*
X139900000Y-52400000D03*
D27*
X27740000Y-52200000D03*
D28*
X37900000Y-52200000D03*
D27*
X151340000Y-52400000D03*
D28*
X161500000Y-52400000D03*
D27*
X49340000Y-52200000D03*
D28*
X59500000Y-52200000D03*
D27*
X173340000Y-52600000D03*
D28*
X183500000Y-52600000D03*
D27*
X71340000Y-52200000D03*
D28*
X81500000Y-52200000D03*
D27*
X195340000Y-52600000D03*
D28*
X205500000Y-52600000D03*
D27*
X93940000Y-52200000D03*
D28*
X104100000Y-52200000D03*
D25*
X43160000Y-76800000D03*
D26*
X45700000Y-76800000D03*
D25*
X43160000Y-86500000D03*
D26*
X45700000Y-86500000D03*
D17*
X178610000Y-147750000D03*
X181150000Y-147750000D03*
X183690000Y-147750000D03*
X186230000Y-147750000D03*
X190040000Y-103300000D03*
D16*
X174800000Y-103300000D03*
D17*
X190040000Y-105840000D03*
X174800000Y-105840000D03*
X190040000Y-108380000D03*
X174800000Y-108380000D03*
X190040000Y-110920000D03*
X174800000Y-110920000D03*
X190040000Y-113460000D03*
X174800000Y-113460000D03*
X190040000Y-116000000D03*
X174800000Y-116000000D03*
X190040000Y-118540000D03*
X174800000Y-118540000D03*
X190040000Y-121080000D03*
X174800000Y-121080000D03*
X190040000Y-123620000D03*
X174800000Y-123620000D03*
X190040000Y-126160000D03*
X174800000Y-126160000D03*
X190040000Y-128700000D03*
X174800000Y-128700000D03*
X190040000Y-131240000D03*
X174800000Y-131240000D03*
X190040000Y-133780000D03*
X174800000Y-133780000D03*
X190040000Y-136320000D03*
X174800000Y-136320000D03*
X190040000Y-138860000D03*
X174800000Y-138860000D03*
X190040000Y-141400000D03*
X174800000Y-141400000D03*
X190040000Y-143940000D03*
X174800000Y-143940000D03*
X190040000Y-146480000D03*
X174800000Y-146480000D03*
X190040000Y-149020000D03*
X174800000Y-149020000D03*
X190040000Y-151560000D03*
X174800000Y-151560000D03*
D15*
X159340000Y-150800000D03*
D16*
X156800000Y-150800000D03*
D15*
X156760000Y-147300000D03*
D16*
X159300000Y-147300000D03*
D19*
X51000000Y-156800000D03*
X53000000Y-156800000D03*
X55000000Y-156800000D03*
D20*
X57000000Y-156800000D03*
D29*
X139500000Y-22200000D03*
X134500000Y-22200000D03*
D30*
X129500000Y-22200000D03*
D29*
X37960000Y-22200000D03*
X32960000Y-22200000D03*
D30*
X27960000Y-22200000D03*
D29*
X161500000Y-22200000D03*
X156500000Y-22200000D03*
D30*
X151500000Y-22200000D03*
D29*
X59806666Y-22200000D03*
X54806666Y-22200000D03*
D30*
X49806666Y-22200000D03*
D19*
X179300000Y-156800000D03*
X181300000Y-156800000D03*
X183300000Y-156800000D03*
D20*
X185300000Y-156800000D03*
D19*
X199000000Y-96900000D03*
X199000000Y-94900000D03*
X199000000Y-92900000D03*
D20*
X199000000Y-90900000D03*
D29*
X183500000Y-22200000D03*
X178500000Y-22200000D03*
D30*
X173500000Y-22200000D03*
D29*
X81653332Y-22200000D03*
X76653332Y-22200000D03*
D30*
X71653332Y-22200000D03*
D15*
X176100000Y-92840000D03*
D16*
X176100000Y-90300000D03*
D29*
X205500000Y-22200000D03*
X200500000Y-22200000D03*
D30*
X195500000Y-22200000D03*
D29*
X103500000Y-22200000D03*
X98500000Y-22200000D03*
D30*
X93500000Y-22200000D03*
D31*
X31600000Y-97700000D03*
D32*
X31600000Y-102700000D03*
G36*
G01*
X34380000Y-70075000D02*
X34380000Y-68325000D01*
G75*
G02*
X35255000Y-67450000I875000J0D01*
G01*
X37005000Y-67450000D01*
G75*
G02*
X37880000Y-68325000I0J-875000D01*
G01*
X37880000Y-70075000D01*
G75*
G02*
X37005000Y-70950000I-875000J0D01*
G01*
X35255000Y-70950000D01*
G75*
G02*
X34380000Y-70075000I0J875000D01*
G01*
G37*
G36*
G01*
X31630000Y-65500000D02*
X31630000Y-63500000D01*
G75*
G02*
X32380000Y-62750000I750000J0D01*
G01*
X33880000Y-62750000D01*
G75*
G02*
X34630000Y-63500000I0J-750000D01*
G01*
X34630000Y-65500000D01*
G75*
G02*
X33880000Y-66250000I-750000J0D01*
G01*
X32380000Y-66250000D01*
G75*
G02*
X31630000Y-65500000I0J750000D01*
G01*
G37*
D33*
X39130000Y-64500000D03*
D34*
X134500000Y-47800000D03*
X128500000Y-45800000D03*
X128500000Y-33600000D03*
X140500000Y-33600000D03*
X140500000Y-45800000D03*
X32980000Y-47600000D03*
X26980000Y-45600000D03*
X26980000Y-33400000D03*
X38980000Y-33400000D03*
X38980000Y-45600000D03*
X156500000Y-47800000D03*
X150500000Y-45800000D03*
X150500000Y-33600000D03*
X162500000Y-33600000D03*
X162500000Y-45800000D03*
X54820000Y-47800000D03*
X48820000Y-45800000D03*
X48820000Y-33600000D03*
X60820000Y-33600000D03*
X60820000Y-45800000D03*
X178500000Y-47800000D03*
X172500000Y-45800000D03*
X172500000Y-33600000D03*
X184500000Y-33600000D03*
X184500000Y-45800000D03*
X76660000Y-47800000D03*
X70660000Y-45800000D03*
X70660000Y-33600000D03*
X82660000Y-33600000D03*
X82660000Y-45800000D03*
X200500000Y-47800000D03*
X194500000Y-45800000D03*
X194500000Y-33600000D03*
X206500000Y-33600000D03*
X206500000Y-45800000D03*
X98500000Y-47800000D03*
X92500000Y-45800000D03*
X92500000Y-33600000D03*
X104500000Y-33600000D03*
X104500000Y-45800000D03*
D35*
X156820000Y-94020000D03*
D18*
X156820000Y-86400000D03*
D35*
X49500000Y-80520000D03*
D18*
X49500000Y-72900000D03*
D35*
X49500000Y-90820000D03*
D18*
X49500000Y-83200000D03*
D22*
X165600000Y-76700000D03*
D21*
X165600000Y-79200000D03*
X165600000Y-81700000D03*
D36*
X173100000Y-73600000D03*
X173100000Y-84800000D03*
D24*
X35300000Y-79900000D03*
X35300000Y-73900000D03*
X32800000Y-79900000D03*
X32800000Y-73900000D03*
X30200000Y-79900000D03*
X30200000Y-73900000D03*
X35300000Y-89700000D03*
X35300000Y-83700000D03*
X32800000Y-89700000D03*
X32800000Y-83700000D03*
X30200000Y-89700000D03*
X30200000Y-83700000D03*
D37*
X98120000Y-128900000D03*
X90500000Y-136520000D03*
X98120000Y-131440000D03*
X90500000Y-133980000D03*
X98120000Y-133980000D03*
X90500000Y-131440000D03*
X98120000Y-136520000D03*
D38*
X90500000Y-128900000D03*
D24*
X149280000Y-158205000D03*
X149280000Y-155665000D03*
X149280000Y-153125000D03*
X149280000Y-150585000D03*
X149280000Y-148045000D03*
X149280000Y-145505000D03*
X149280000Y-142965000D03*
X149280000Y-140425000D03*
X149280000Y-137885000D03*
X149280000Y-135345000D03*
X149280000Y-132805000D03*
X149280000Y-130265000D03*
X149280000Y-127725000D03*
X149280000Y-125185000D03*
X149280000Y-122645000D03*
X126620000Y-158205000D03*
X126620000Y-155665000D03*
X126620000Y-153125000D03*
X126620000Y-150585000D03*
X126620000Y-148045000D03*
X126620000Y-145505000D03*
X126620000Y-142965000D03*
X126620000Y-140425000D03*
X126620000Y-137885000D03*
X126620000Y-135345000D03*
X126620000Y-132805000D03*
X126620000Y-130265000D03*
X126620000Y-127725000D03*
X126620000Y-125185000D03*
X126620000Y-122645000D03*
X83940000Y-158620000D03*
X81400000Y-158620000D03*
X83940000Y-156080000D03*
X81400000Y-156080000D03*
X83940000Y-153540000D03*
X81400000Y-153540000D03*
X83940000Y-151000000D03*
D39*
X81400000Y-151000000D03*
D13*
X67680000Y-76500000D03*
X65140000Y-76500000D03*
D14*
X62600000Y-76500000D03*
M02*
