M48
; DRILL file {KiCad (5.1.8)-1} date 01/18/22 19:38:33
; FORMAT={-:-/ absolute / metric / decimal}
; #@! TF.CreationDate,2022-01-18T19:38:33+01:00
; #@! TF.GenerationSoftware,Kicad,Pcbnew,(5.1.8)-1
; #@! TF.FileFunction,Plated,1,2,PTH
FMAT,2
METRIC
T1C0.400
T2C0.762
T3C0.800
T4C0.900
T5C1.000
T6C1.100
T7C1.300
T8C1.320
T9C2.000
T10C3.100
%
G90
G05
T1
X27.66Y-162.68
X31.84Y-128.76
X37.2Y-144.4
X37.62Y-128.87
X37.86Y-132.86
X38.1Y-136.5
X41.14Y-105.85
X41.54Y-92.97
X41.61Y-120.03
X42.1Y-144.4
X42.63Y-148.72
X43.17Y-127.61
X43.55Y-124.92
X43.61Y-132.68
X43.63Y-139.28
X48.43Y-95.47
X49.55Y-118.71
X49.59Y-128.96
X50.4Y-95.9
X50.6Y-113.32
X50.82Y-136.68
X51.43Y-152.09
X52.6Y-95.9
X54.7Y-96.0
X64.43Y-125.03
X64.75Y-121.25
X64.9Y-115.02
X66.8Y-141.3
X66.9Y-106.93
X67.84Y-118.61
X67.98Y-110.3
X68.58Y-126.36
X68.62Y-137.43
X69.99Y-119.0
X70.84Y-120.6
X71.54Y-117.23
X73.1Y-128.9
X73.3Y-131.4
X73.3Y-134.5
X74.7Y-132.88
X74.92Y-130.1
X75.47Y-111.89
X76.95Y-137.38
X77.12Y-150.53
X79.45Y-67.48
X80.71Y-95.12
X80.93Y-102.53
X80.99Y-86.22
X81.04Y-79.81
X81.562Y-112.637
X83.4Y-108.15
X87.21Y-91.15
X87.31Y-86.32
X87.51Y-76.07
X88.13Y-156.08
X92.07Y-80.86
X97.2Y-107.06
X98.22Y-64.95
X98.95Y-107.15
X103.39Y-74.99
X103.42Y-108.25
X103.56Y-97.56
X104.137Y-116.662
X105.65Y-126.94
X106.06Y-65.1
X114.99Y-65.01
X116.28Y-49.59
X116.86Y-152.01
X116.9Y-108.55
X117.18Y-134.36
X120.9Y-64.9
X121.7Y-65.8
X122.95Y-66.65
X124.1Y-67.5
X125.0Y-69.4
X126.5Y-68.4
X132.55Y-98.13
X134.74Y-104.66
X141.49Y-63.28
X142.1Y-77.6
X160.26Y-122.88
X167.59Y-137.59
X167.61Y-140.07
X167.64Y-132.47
X167.65Y-134.97
X168.24Y-122.88
X169.43Y-142.66
X169.51Y-109.73
X169.57Y-104.51
X171.41Y-62.02
X176.86Y-63.1
X178.24Y-59.54
X179.23Y-122.88
X179.9Y-151.69
X182.82Y-82.72
X182.84Y-63.15
X189.15Y-76.68
X189.38Y-94.66
X189.61Y-61.64
X190.662Y-79.237
X192.38Y-136.31
X192.438Y-81.237
X192.737Y-60.078
X193.81Y-161.99
X202.73Y-102.76
T2
X126.62Y-122.645
X126.62Y-125.185
X126.62Y-127.725
X126.62Y-130.265
X126.62Y-132.805
X126.62Y-135.345
X126.62Y-137.885
X126.62Y-140.425
X126.62Y-142.965
X126.62Y-145.505
X126.62Y-148.045
X126.62Y-150.585
X126.62Y-153.125
X126.62Y-155.665
X126.62Y-158.205
X149.28Y-122.645
X149.28Y-125.185
X149.28Y-127.725
X149.28Y-130.265
X149.28Y-132.805
X149.28Y-135.345
X149.28Y-137.885
X149.28Y-140.425
X149.28Y-142.965
X149.28Y-145.505
X149.28Y-148.045
X149.28Y-150.585
X149.28Y-153.125
X149.28Y-155.665
X149.28Y-158.205
X30.2Y-83.7
X30.2Y-89.7
X32.8Y-83.7
X32.8Y-89.7
X35.3Y-83.7
X35.3Y-89.7
X97.2Y-88.91
X117.2Y-88.9
X83.8Y-64.56
X83.8Y-67.1
X83.8Y-69.64
X83.8Y-72.18
X83.8Y-74.72
X83.8Y-77.26
X83.8Y-79.8
X83.8Y-82.34
X83.8Y-84.88
X83.8Y-87.42
X83.8Y-89.96
X83.8Y-92.5
X83.8Y-95.04
X83.8Y-97.58
X30.2Y-73.9
X30.2Y-79.9
X32.8Y-73.9
X32.8Y-79.9
X35.3Y-73.9
X35.3Y-79.9
X81.4Y-151.0
X81.4Y-153.54
X81.4Y-156.08
X81.4Y-158.62
X83.94Y-151.0
X83.94Y-153.54
X83.94Y-156.08
X83.94Y-158.62
T3
X58.1Y-67.7
X63.1Y-67.7
X81.54Y-146.8
X84.04Y-146.8
X49.5Y-83.2
X49.5Y-90.82
X199.0Y-90.9
X199.0Y-92.9
X199.0Y-94.9
X199.0Y-96.9
X179.3Y-156.8
X181.3Y-156.8
X183.3Y-156.8
X185.3Y-156.8
X199.0Y-77.4
X199.0Y-79.4
X199.0Y-81.4
X199.0Y-83.4
X90.5Y-128.9
X90.5Y-131.44
X90.5Y-133.98
X90.5Y-136.52
X98.12Y-128.9
X98.12Y-131.44
X98.12Y-133.98
X98.12Y-136.52
X66.9Y-67.7
X71.9Y-67.7
X156.82Y-86.4
X156.82Y-94.02
X66.7Y-90.0
X71.7Y-90.0
X55.0Y-62.01
X55.0Y-64.51
X38.89Y-75.86
X38.89Y-78.36
X199.0Y-63.9
X199.0Y-65.9
X199.0Y-67.9
X199.0Y-69.9
X66.9Y-79.6
X71.9Y-79.6
X51.0Y-156.8
X53.0Y-156.8
X55.0Y-156.8
X57.0Y-156.8
X58.4Y-90.0
X63.4Y-90.0
X49.5Y-72.9
X49.5Y-80.52
X38.89Y-85.6
X38.89Y-88.1
X55.0Y-84.26
X55.0Y-86.76
X55.0Y-73.42
X55.0Y-75.92
X58.3Y-79.6
X63.3Y-79.6
T4
X43.16Y-76.8
X45.7Y-76.8
X165.4Y-91.6
X167.94Y-91.6
X43.16Y-86.5
X45.7Y-86.5
T5
X165.6Y-76.7
X165.6Y-79.2
X165.6Y-81.7
X176.1Y-90.3
X176.1Y-92.84
X156.76Y-147.3
X159.3Y-147.3
X174.8Y-103.3
X174.8Y-105.84
X174.8Y-108.38
X174.8Y-110.92
X174.8Y-113.46
X174.8Y-116.0
X174.8Y-118.54
X174.8Y-121.08
X174.8Y-123.62
X174.8Y-126.16
X174.8Y-128.7
X174.8Y-131.24
X174.8Y-133.78
X174.8Y-136.32
X174.8Y-138.86
X174.8Y-141.4
X174.8Y-143.94
X174.8Y-146.48
X174.8Y-149.02
X174.8Y-151.56
X178.61Y-147.75
X181.15Y-147.75
X183.69Y-147.75
X186.23Y-147.75
X190.04Y-103.3
X190.04Y-105.84
X190.04Y-108.38
X190.04Y-110.92
X190.04Y-113.46
X190.04Y-116.0
X190.04Y-118.54
X190.04Y-121.08
X190.04Y-123.62
X190.04Y-126.16
X190.04Y-128.7
X190.04Y-131.24
X190.04Y-133.78
X190.04Y-136.32
X190.04Y-138.86
X190.04Y-141.4
X190.04Y-143.94
X190.04Y-146.48
X190.04Y-149.02
X190.04Y-151.56
X46.5Y-103.5
X46.5Y-106.04
X46.5Y-108.58
X46.5Y-111.12
X46.5Y-113.66
X46.5Y-116.2
X46.5Y-118.74
X46.5Y-121.28
X46.5Y-123.82
X46.5Y-126.36
X46.5Y-128.9
X46.5Y-131.44
X46.5Y-133.98
X46.5Y-136.52
X46.5Y-139.06
X46.5Y-141.6
X46.5Y-144.14
X46.5Y-146.68
X46.5Y-149.22
X46.5Y-151.76
X50.31Y-147.95
X52.85Y-147.95
X55.39Y-147.95
X57.93Y-147.95
X61.74Y-103.5
X61.74Y-106.04
X61.74Y-108.58
X61.74Y-111.12
X61.74Y-113.66
X61.74Y-116.2
X61.74Y-118.74
X61.74Y-121.28
X61.74Y-123.82
X61.74Y-126.36
X61.74Y-128.9
X61.74Y-131.44
X61.74Y-133.98
X61.74Y-136.52
X61.74Y-139.06
X61.74Y-141.6
X61.74Y-144.14
X61.74Y-146.68
X61.74Y-149.22
X61.74Y-151.76
X142.4Y-86.4
X142.4Y-94.0
X166.3Y-69.1
X168.84Y-69.1
X171.38Y-69.1
X173.92Y-69.1
X176.46Y-69.1
X179.0Y-69.1
X156.8Y-150.8
X159.34Y-150.8
T6
X93.94Y-52.2
X104.1Y-52.2
X195.34Y-52.6
X205.5Y-52.6
X27.74Y-52.2
X37.9Y-52.2
X129.74Y-52.4
X139.9Y-52.4
X62.42Y-62.54
X64.96Y-62.54
X67.5Y-62.54
X62.6Y-76.5
X65.14Y-76.5
X67.68Y-76.5
X71.34Y-52.2
X81.5Y-52.2
X173.34Y-52.6
X183.5Y-52.6
X62.55Y-84.59
X65.09Y-84.59
X67.63Y-84.59
X49.34Y-52.2
X59.5Y-52.2
X151.34Y-52.4
X161.5Y-52.4
T7
X92.5Y-33.6
X92.5Y-45.8
X98.5Y-47.8
X104.5Y-33.6
X104.5Y-45.8
X172.5Y-33.6
X172.5Y-45.8
X178.5Y-47.8
X184.5Y-33.6
X184.5Y-45.8
X150.5Y-33.6
X150.5Y-45.8
X156.5Y-47.8
X162.5Y-33.6
X162.5Y-45.8
X128.5Y-33.6
X128.5Y-45.8
X134.5Y-47.8
X140.5Y-33.6
X140.5Y-45.8
X26.98Y-33.4
X26.98Y-45.6
X32.98Y-47.6
X38.98Y-33.4
X38.98Y-45.6
X194.5Y-33.6
X194.5Y-45.8
X200.5Y-47.8
X206.5Y-33.6
X206.5Y-45.8
X70.66Y-33.6
X70.66Y-45.8
X76.66Y-47.8
X82.66Y-33.6
X82.66Y-45.8
X48.82Y-33.6
X48.82Y-45.8
X54.82Y-47.8
X60.82Y-33.6
X60.82Y-45.8
T8
X93.5Y-22.2
X98.5Y-22.2
X103.5Y-22.2
X71.653Y-22.2
X76.653Y-22.2
X81.653Y-22.2
X27.96Y-22.2
X32.96Y-22.2
X37.96Y-22.2
X173.5Y-22.2
X178.5Y-22.2
X183.5Y-22.2
X49.807Y-22.2
X54.807Y-22.2
X59.807Y-22.2
X195.5Y-22.2
X200.5Y-22.2
X205.5Y-22.2
X151.5Y-22.2
X156.5Y-22.2
X161.5Y-22.2
X31.6Y-97.7
X31.6Y-102.7
X129.5Y-22.2
X134.5Y-22.2
X139.5Y-22.2
T10
X88.64Y-62.37
X88.69Y-99.58
X156.62Y-99.69
X156.7Y-62.38
T5
X33.13Y-63.5G85X33.13Y-65.5
G05
X35.13Y-69.2G85X37.13Y-69.2
G05
X39.13Y-63.5G85X39.13Y-65.5
G05
T9
X172.85Y-73.6G85X173.35Y-73.6
G05
X172.85Y-84.8G85X173.35Y-84.8
G05
T0
M30
